<svg width="192" height="192" viewBox="0 0 192 192" fill="none" xmlns="http://www.w3.org/2000/svg">
<rect width="192" height="192" fill="white"/>
<g clip-path="url(#clip0_1948_115)">
<path d="M44.123 69.3033L30.4816 64.6897L3 81.8139L34.7022 174.717L57.1825 188.996V105.757L82.1598 90.8221C82.1598 90.8221 87.5368 88.8437 91.1902 90.3844C91.1902 90.3844 95.8674 92.2113 96.5082 96.6817L119.246 81.8223V100.049L98.88 113.225C98.88 113.225 94.4606 130.576 90.0411 134.306L131.356 108.174L130.59 57.441L84.2811 35.5854C84.2811 35.5854 83.8097 35.476 83.0142 35.3581C77.6004 34.5583 72.1129 35.8801 67.3914 39.0035L37.6853 58.6449C37.6853 58.6449 45.4709 59.7815 48.3509 61.44C48.9181 61.7683 49.4779 62.1051 50.0598 62.3913L75.8252 75.1208L111.372 53.7114L125.205 60.0845L90.2473 83.9944C87.9566 85.5603 85.2239 86.057 82.6238 85.3667L75.8252 83.5818C75.8252 83.5818 68.0396 82.2601 62.5669 85.5603L41.1399 98.736L41.0441 156.17L16.4499 87.3114L44.123 69.3033Z" fill="#A673FF"/>
<path d="M69.6748 114.648V130.349L84.5536 119.96C87.2348 118.091 88.8258 114.606 88.3912 111.053C88.207 109.546 87.6767 108.073 86.5056 106.953C85.3344 105.833 83.7729 105.724 82.4912 106.54L69.6674 114.648H69.6748Z" fill="#A673FF"/>
<path d="M79.0735 140.62L69.6748 145.402V154.949L87.8314 167.805L79.0735 140.62Z" fill="#A673FF"/>
<path d="M95.1824 147.709L100.515 159.731L131.356 139.467V123.984L95.1824 147.709Z" fill="#A673FF"/>
<path d="M137.123 88.0776V105.042L167.816 84.9457V100.597L137.123 120.693V136.175L180.787 108.67L179.631 25.8194C179.631 25.8194 134.818 4.41003 134.803 4.40161C124.734 -0.405611 114.761 8.24065 106.445 13.9403C99.2409 18.8822 91.9194 23.6137 84.6641 28.4546L120.263 46.5721L152.51 25.1627C153.858 24.2703 155.294 23.5463 156.804 23.0917C160.163 22.073 162.292 22.7718 166.093 24.1777L174.593 29.288L136.976 54.1576L137.263 70.6335L167.669 50.0407L167.816 69.3959L137.985 87.7576" fill="#A673FF"/>
<path d="M184.409 28.7492V25.8851H183.553V25.5318H185.637V25.8851H184.776V28.7492H184.409Z" fill="#A673FF"/>
<path d="M188.393 28.7492L188.322 27.3362C188.301 26.8875 188.276 26.3481 188.281 25.9471H188.268C188.172 26.3243 188.055 26.7252 187.913 27.1692L187.416 28.7301H187.14L186.685 27.1978C186.551 26.7443 186.439 26.329 186.359 25.9471H186.351C186.343 26.3481 186.322 26.8875 186.297 27.3697L186.222 28.7492H185.875L186.071 25.5318H186.535L187.015 27.088C187.132 27.4842 187.228 27.8375 187.299 28.1716H187.312C187.383 27.847 187.483 27.4938 187.608 27.088L188.109 25.5318H188.573L188.748 28.7492H188.393Z" fill="#A673FF"/>
</g>
<defs>
<clipPath id="clip0_1948_115">
<rect width="186" height="186" fill="white" transform="translate(3 3)"/>
</clipPath>
</defs>
</svg>
