<svg width="128" height="128" viewBox="0 0 128 128" fill="none" xmlns="http://www.w3.org/2000/svg">
<rect width="128" height="128" fill="white"/>
<g clip-path="url(#clip0_1948_112)">
<path d="M29.6943 46.3458L20.6733 43.2949L2.5 54.6189L23.4644 116.055L38.3304 125.497V70.4525L54.8476 60.576C54.8476 60.576 58.4034 59.2677 60.8193 60.2865C60.8193 60.2865 63.9123 61.4946 64.3361 64.4509L79.3726 54.6245V66.6778L65.9045 75.3908C65.9045 75.3908 62.982 86.8651 60.0595 89.3315L87.3804 72.0504L86.8738 38.5013L56.2504 24.0484C56.2504 24.0484 55.9387 23.9761 55.4126 23.8981C51.8325 23.3692 48.2037 24.2433 45.0814 26.3088L25.4371 39.2975C25.4371 39.2975 30.5856 40.0491 32.4902 41.1458C32.8652 41.363 33.2354 41.5857 33.6202 41.775L50.6586 50.1928L74.1656 36.035L83.3132 40.2495L60.1958 56.0609C58.681 57.0964 56.8739 57.4249 55.1545 56.9683L50.6586 55.788C50.6586 55.788 45.5101 54.914 41.891 57.0964L27.7215 65.8093L27.6582 103.79L11.3943 58.2544L29.6943 46.3458Z" fill="#A673FF"/>
<path d="M46.5914 76.3317V86.7148L56.4306 79.8447C58.2036 78.6087 59.2558 76.3038 58.9684 73.9544C58.8466 72.9578 58.4959 71.9835 57.7214 71.2431C56.947 70.5026 55.9143 70.4302 55.0668 70.9703L46.5865 76.3317H46.5914Z" fill="#A673FF"/>
<path d="M52.8067 93.507L46.5914 96.6693V102.983L58.5982 111.484L52.8067 93.507Z" fill="#A673FF"/>
<path d="M63.4594 98.1948L66.9859 106.145L87.3804 92.7443V82.5059L63.4594 98.1948Z" fill="#A673FF"/>
<path d="M91.1943 58.761V69.9793L111.491 56.69V67.0397L91.1943 80.329V90.5675L120.069 72.3788L119.304 17.5903C119.304 17.5903 89.6697 3.43244 89.6599 3.42687C83.0014 0.2479 76.4062 5.9656 70.907 9.73471C66.1432 13.0028 61.3015 16.1316 56.5037 19.3329L80.0448 31.3139L101.37 17.156C102.261 16.5659 103.211 16.0871 104.209 15.7864C106.43 15.1128 107.838 15.5749 110.352 16.5046L115.973 19.884L91.0969 36.3301L91.2868 47.2254L111.394 33.6076L111.491 46.407L91.7642 58.5495" fill="#A673FF"/>
<path d="M122.464 19.5277V17.6337H121.898V17.4001H123.276V17.6337H122.707V19.5277H122.464Z" fill="#A673FF"/>
<path d="M125.099 19.5277L125.052 18.5933C125.038 18.2966 125.021 17.9399 125.024 17.6747H125.016C124.952 17.9241 124.875 18.1893 124.781 18.4829L124.453 19.5151H124.27L123.969 18.5018C123.881 18.2019 123.806 17.9273 123.754 17.6747H123.748C123.743 17.9399 123.729 18.2966 123.712 18.6154L123.663 19.5277H123.433L123.563 17.4001H123.87L124.187 18.4292C124.265 18.6912 124.328 18.9248 124.375 19.1458H124.384C124.43 18.9311 124.497 18.6975 124.58 18.4292L124.911 17.4001H125.218L125.334 19.5277H125.099Z" fill="#A673FF"/>
</g>
<defs>
<clipPath id="clip0_1948_112">
<rect width="123" height="123" fill="white" transform="translate(2.5 2.5)"/>
</clipPath>
</defs>
</svg>
