<svg width="64" height="64" viewBox="0 0 64 64" fill="none" xmlns="http://www.w3.org/2000/svg">
<rect width="64" height="64" fill="white"/>
<g clip-path="url(#clip0_1948_109)">
<path d="M15.4866 23.7447L11.0128 22.2316L2 27.8476L12.397 58.3158L19.7695 62.9986V35.7L27.961 30.8019C27.961 30.8019 29.7244 30.1531 30.9226 30.6583C30.9226 30.6583 32.4565 31.2575 32.6667 32.7236L40.1238 27.8503V33.828L33.4445 38.1491C33.4445 38.1491 31.9951 43.8396 30.5457 45.0628L44.0951 36.4924L43.8439 19.8543L28.6567 12.6866C28.6567 12.6866 28.5021 12.6507 28.2412 12.6121C26.4657 12.3498 24.666 12.7833 23.1176 13.8076L13.3753 20.2492C13.3753 20.2492 15.9286 20.6219 16.8732 21.1658C17.0592 21.2735 17.2427 21.3839 17.4336 21.4778L25.8835 25.6525L37.5414 18.6312L42.078 20.7213L30.6134 28.5627C29.8621 29.0762 28.9659 29.2392 28.1132 29.0127L25.8835 28.4274C25.8835 28.4274 23.3302 27.9939 21.5354 29.0762L14.5082 33.3973L14.4768 52.2332L6.41098 29.6505L15.4866 23.7447Z" fill="#A673FF"/>
<path d="M23.8665 38.6157V43.7651L28.7461 40.3579C29.6254 39.745 30.1471 38.6019 30.0046 37.4367C29.9442 36.9425 29.7703 36.4593 29.3862 36.0921C29.0021 35.7249 28.49 35.689 28.0697 35.9568L23.864 38.6157H23.8665Z" fill="#A673FF"/>
<path d="M26.9488 47.1336L23.8665 48.7018V51.8329L29.821 56.049L26.9488 47.1336Z" fill="#A673FF"/>
<path d="M32.2319 49.4584L33.9808 53.4012L44.0951 46.7553V41.6777L32.2319 49.4584Z" fill="#A673FF"/>
<path d="M45.9866 29.9018V35.4653L56.0526 28.8747V34.0075L45.9866 40.5981V45.6757L60.3065 36.6553L59.9273 9.4838C59.9273 9.4838 45.2305 2.46243 45.2256 2.45967C41.9234 0.883105 38.6526 3.71871 35.9254 5.58794C33.5629 7.20868 31.1617 8.7604 28.7823 10.348L40.4571 16.2898L51.0328 9.26843C51.4749 8.97576 51.946 8.73831 52.4412 8.58921C53.5427 8.25513 54.2408 8.48429 55.4873 8.94539L58.275 10.6213L45.9382 18.7775L46.0325 24.1809L56.0043 17.4274L56.0526 23.775L46.2692 29.7969" fill="#A673FF"/>
<path d="M61.4942 10.4446V9.50533H61.2134V9.38948H61.8969V9.50533H61.6148V10.4446H61.4942Z" fill="#A673FF"/>
<path d="M62.801 10.4446L62.7777 9.98125C62.7709 9.83409 62.7626 9.65719 62.764 9.52568H62.7599C62.7284 9.64936 62.69 9.78086 62.6435 9.92646L62.4805 10.4384H62.3901L62.2408 9.93585C62.197 9.78712 62.16 9.65092 62.134 9.52568H62.1312C62.1285 9.65719 62.1216 9.83409 62.1134 9.99221L62.0888 10.4446H61.9751L62.0395 9.38948H62.1915L62.349 9.89984C62.3873 10.0298 62.4189 10.1456 62.4421 10.2552H62.4462C62.4695 10.1488 62.5024 10.0329 62.5435 9.89984L62.7079 9.38948H62.8599L62.9174 10.4446H62.801Z" fill="#A673FF"/>
</g>
<defs>
<clipPath id="clip0_1948_109">
<rect width="61" height="61" fill="white" transform="translate(2 2)"/>
</clipPath>
</defs>
</svg>
