<svg width="16" height="16" viewBox="0 0 16 16" fill="none" xmlns="http://www.w3.org/2000/svg">
<rect width="16" height="16" fill="white"/>
<g clip-path="url(#clip0_1948_106)">
<path d="M4.6531 6.27764L3.77301 5.97998L2 7.08477L4.0453 13.0785L5.49564 13.9997V8.62951L7.10708 7.66595C7.10708 7.66595 7.45398 7.53831 7.68969 7.6377C7.68969 7.6377 7.99145 7.75557 8.03279 8.04399L9.49976 7.08531V8.26125L8.18581 9.11129C8.18581 9.11129 7.90068 10.2307 7.61555 10.4714L10.281 8.7854L10.2316 5.51232L7.24394 4.10229C7.24394 4.10229 7.21353 4.09522 7.1622 4.08762C6.81293 4.03602 6.45889 4.1213 6.15428 4.32281L4.23776 5.59C4.23776 5.59 4.74006 5.66332 4.92587 5.77032C4.96246 5.79151 4.99857 5.81323 5.03612 5.8317L6.6984 6.65296L8.99176 5.27171L9.88421 5.68288L7.62886 7.22545C7.48107 7.32647 7.30477 7.35852 7.13702 7.31398L6.6984 7.19883C6.6984 7.19883 6.1961 7.11356 5.84302 7.32647L4.46064 8.17652L4.45446 11.8819L2.86773 7.43945L4.6531 6.27764Z" fill="#A673FF"/>
<path d="M6.3016 9.20309V10.2161L7.26152 9.54582C7.4345 9.42524 7.53715 9.20037 7.50911 8.97116C7.49723 8.87393 7.46301 8.77888 7.38745 8.70664C7.3119 8.6344 7.21115 8.62734 7.12846 8.68002L6.30112 9.20309H6.3016Z" fill="#A673FF"/>
<path d="M6.90797 10.8787L6.3016 11.1872V11.8032L7.47299 12.6326L6.90797 10.8787Z" fill="#A673FF"/>
<path d="M7.94725 11.3361L8.2913 12.1117L10.281 10.8043V9.80545L7.94725 11.3361Z" fill="#A673FF"/>
<path d="M10.6531 7.48888V8.58334L12.6333 7.28682V8.29656L10.6531 9.59307V10.5919L13.4701 8.81744L13.3955 3.47222C13.3955 3.47222 10.5044 2.09097 10.5034 2.09043C9.85379 1.78028 9.21036 2.33811 8.67385 2.70583C8.20909 3.02466 7.73673 3.32991 7.26865 3.64223L9.56534 4.81111L11.6458 3.42986C11.7328 3.37228 11.8254 3.32557 11.9229 3.29624C12.1396 3.23052 12.2769 3.2756 12.5221 3.36631L13.0705 3.696L10.6436 5.30049L10.6621 6.36345L12.6238 5.03489L12.6333 6.28361L10.7087 7.46824" fill="#A673FF"/>
<path d="M13.7038 3.66124V3.47646H13.6485V3.45367H13.783V3.47646H13.7275V3.66124H13.7038Z" fill="#A673FF"/>
<path d="M13.9609 3.66124L13.9563 3.57008C13.9549 3.54113 13.9533 3.50633 13.9536 3.48046H13.9528C13.9466 3.50479 13.939 3.53066 13.9299 3.5593L13.8978 3.66001H13.88L13.8507 3.56115C13.842 3.53189 13.8348 3.5051 13.8296 3.48046H13.8291C13.8286 3.50633 13.8272 3.54113 13.8256 3.57224L13.8207 3.66124H13.7984L13.811 3.45367H13.841L13.8719 3.55407C13.8795 3.57963 13.8857 3.60242 13.8903 3.62398H13.8911C13.8956 3.60303 13.9021 3.58024 13.9102 3.55407L13.9425 3.45367H13.9724L13.9838 3.66124H13.9609Z" fill="#A673FF"/>
</g>
<defs>
<clipPath id="clip0_1948_106">
<rect width="12" height="12" fill="white" transform="translate(2 2)"/>
</clipPath>
</defs>
</svg>
