<svg width="48" height="48" viewBox="0 0 48 48" fill="none" xmlns="http://www.w3.org/2000/svg">
<rect width="48" height="48" fill="white"/>
<g clip-path="url(#clip0_1948_118)">
<path d="M12.0069 17.8282L8.85328 16.7616L2.5 20.7204L9.829 42.198L15.0261 45.499V26.2558L20.8004 22.803C20.8004 22.803 22.0434 22.3456 22.888 22.7018C22.888 22.7018 23.9693 23.1241 24.1175 24.1576L29.3741 20.7224V24.9361L24.6658 27.9821C24.6658 27.9821 23.6441 31.9935 22.6224 32.8557L32.1736 26.8143L31.9965 15.0858L21.2908 10.0332C21.2908 10.0332 21.1818 10.0079 20.9979 9.98064C19.7463 9.79574 18.4777 10.1013 17.3862 10.8234L10.5186 15.3642C10.5186 15.3642 12.3185 15.6269 12.9844 16.0103C13.1155 16.0862 13.2449 16.1641 13.3794 16.2303L19.3359 19.1731L27.5538 14.2236L30.7517 15.697L22.6701 21.2245C22.1405 21.5865 21.5087 21.7014 20.9076 21.5418L19.3359 21.1291C19.3359 21.1291 17.536 20.8236 16.2708 21.5865L11.3173 24.6325L11.2951 37.9103L5.60938 21.9914L12.0069 17.8282Z" fill="#A673FF"/>
<path d="M17.9141 28.3111V31.9409L21.3538 29.5392C21.9736 29.1071 22.3414 28.3013 22.241 27.48C22.1984 27.1316 22.0758 26.791 21.805 26.5321C21.5343 26.2733 21.1733 26.248 20.877 26.4368L17.9124 28.3111H17.9141Z" fill="#A673FF"/>
<path d="M20.0869 34.3155L17.9141 35.421V37.6281L22.1115 40.6001L20.0869 34.3155Z" fill="#A673FF"/>
<path d="M23.811 35.9543L25.0438 38.7336L32.1736 34.0488V30.4695L23.811 35.9543Z" fill="#A673FF"/>
<path d="M33.5069 22.1685V26.0903L40.6026 21.4445V25.0627L33.5069 29.7085V33.2878L43.6013 26.9292L43.334 7.77546C43.334 7.77546 32.9739 2.82597 32.9705 2.82403C30.6428 1.71268 28.3371 3.71155 26.4146 5.02921C24.7492 6.1717 23.0566 7.26553 21.3793 8.38466L29.6091 12.5731L37.0641 7.62365C37.3758 7.41734 37.7078 7.24996 38.0569 7.14485C38.8334 6.90935 39.3255 7.07089 40.2042 7.39593L42.1692 8.57734L33.4729 14.3268L33.5393 18.1357L40.5686 13.375L40.6026 17.8496L33.7062 22.0945" fill="#A673FF"/>
<path d="M44.4386 8.45278V7.79064H44.2406V7.70898H44.7224V7.79064H44.5235V8.45278H44.4386Z" fill="#A673FF"/>
<path d="M45.3597 8.45278L45.3433 8.12613C45.3385 8.02239 45.3327 7.89769 45.3336 7.80499H45.3308C45.3085 7.89217 45.2815 7.98487 45.2487 8.0875L45.1338 8.44837H45.0701L44.9648 8.09412C44.9339 7.98928 44.9079 7.89327 44.8895 7.80499H44.8876C44.8857 7.89769 44.8808 8.02239 44.875 8.13385L44.8577 8.45278H44.7775L44.8229 7.70898H44.9301L45.0411 8.06874C45.0681 8.16034 45.0903 8.242 45.1068 8.31925H45.1097C45.1261 8.24421 45.1492 8.16254 45.1782 8.06874L45.2941 7.70898H45.4012L45.4418 8.45278H45.3597Z" fill="#A673FF"/>
</g>
<defs>
<clipPath id="clip0_1948_118">
<rect width="43" height="43" fill="white" transform="translate(2.5 2.5)"/>
</clipPath>
</defs>
</svg>
