<svg width="32" height="32" viewBox="0 0 32 32" fill="none" xmlns="http://www.w3.org/2000/svg">
<rect width="32" height="32" fill="white"/>
<g clip-path="url(#clip0_1948_103)">
<path d="M8.19056 11.9811L6.13702 11.2866L2 13.8645L6.77237 27.8499L10.1565 29.9993V17.4689L13.9165 15.2205C13.9165 15.2205 14.726 14.9227 15.2759 15.1546C15.2759 15.1546 15.98 15.4297 16.0765 16.1026L19.4994 13.8657V16.6096L16.4335 18.593C16.4335 18.593 15.7683 21.2051 15.103 21.7665L21.3223 17.8326L21.207 10.1954L14.2359 6.90533C14.2359 6.90533 14.1649 6.88886 14.0451 6.87111C13.2302 6.75071 12.4041 6.94969 11.6933 7.41989L7.22145 10.3767C7.22145 10.3767 8.39347 10.5478 8.82702 10.7974C8.9124 10.8469 8.99667 10.8975 9.08427 10.9406L12.9629 12.8569L18.3141 9.63398L20.3965 10.5934L15.134 14.1927C14.7892 14.4284 14.3778 14.5032 13.9864 14.3993L12.9629 14.1306C12.9629 14.1306 11.7909 13.9316 10.9671 14.4284L7.74149 16.4119L7.72707 25.0579L4.02471 14.6921L8.19056 11.9811Z" fill="#A673FF"/>
<path d="M12.0371 18.8072V21.1708L14.2769 19.6069C14.6805 19.3256 14.92 18.8009 14.8546 18.266C14.8269 18.0392 14.747 17.8174 14.5707 17.6488C14.3944 17.4803 14.1594 17.4638 13.9664 17.5867L12.036 18.8072H12.0371Z" fill="#A673FF"/>
<path d="M13.4519 22.717L12.0371 23.4369V24.8741L14.7703 26.8094L13.4519 22.717Z" fill="#A673FF"/>
<path d="M15.8769 23.7842L16.6797 25.594L21.3223 22.5434V20.2127L15.8769 23.7842Z" fill="#A673FF"/>
<path d="M22.1906 14.8074V17.3611L26.811 14.3359V16.692L22.1906 19.7172V22.0479L28.7637 17.9074L28.5896 5.43518C28.5896 5.43518 21.8435 2.21226 21.8413 2.211C20.3255 1.48733 18.8242 2.78892 17.5723 3.64693C16.4879 4.39087 15.3857 5.10313 14.2935 5.83187L19.6525 8.55925L24.5069 5.33633C24.7098 5.20199 24.926 5.09299 25.1533 5.02456C25.659 4.8712 25.9794 4.9764 26.5516 5.18805L27.8311 5.95734L22.1684 9.70115L22.2116 12.1814L26.7888 9.08141L26.811 11.9951L22.3203 14.7592" fill="#A673FF"/>
<path d="M29.3088 5.87623V5.44507H29.1799V5.39189H29.4937V5.44507H29.3642V5.87623H29.3088Z" fill="#A673FF"/>
<path d="M29.9087 5.87623L29.898 5.66352C29.8948 5.59598 29.8911 5.51477 29.8917 5.45441H29.8898C29.8753 5.51118 29.8577 5.57154 29.8364 5.63837L29.7615 5.87335H29.72L29.6515 5.64268C29.6314 5.57442 29.6144 5.5119 29.6025 5.45441H29.6012C29.6 5.51477 29.5968 5.59598 29.5931 5.66855L29.5817 5.87623H29.5296L29.5591 5.39189H29.6289L29.7012 5.62616C29.7188 5.6858 29.7333 5.73898 29.7439 5.78928H29.7458C29.7565 5.74041 29.7716 5.68724 29.7905 5.62616L29.8659 5.39189H29.9357L29.9621 5.87623H29.9087Z" fill="#A673FF"/>
</g>
<defs>
<clipPath id="clip0_1948_103">
<rect width="28" height="28" fill="white" transform="translate(2 2)"/>
</clipPath>
</defs>
</svg>
